<?xml version="1.0" encoding="UTF-8"?>
<svg id="a" data-name="图层 1" xmlns="http://www.w3.org/2000/svg" viewBox="0 0 80 40">
  <defs>
    <style>
      .b {
        fill: none;
        stroke: #000;
        stroke-miterlimit: 10;
        stroke-width: 2px;
      }

      .c {
        fill: #ed1c24;
      }
    </style>
  </defs>
  <path class="c" d="m37.55,2h-17.6c-1.22,0-2.2.92-2.2,2.06v31.89c0,1.14.98,2.06,2.2,2.06h17.6c1.22,0,2.2-.92,2.2-2.06V4.06c0-1.14-.98-2.06-2.2-2.06Zm.2,18h-18V4h18v16Z"/>
  <path class="c" d="m60.05,2h-17.6c-1.22,0-2.2.92-2.2,2.06v31.89c0,1.14.98,2.06,2.2,2.06h17.6c1.22,0,2.2-.92,2.2-2.06V4.06c0-1.14-.98-2.06-2.2-2.06Zm.2,18h-18V4h18v16Z"/>
  <polygon class="c" points="14.5 23 9.5 20 14.5 17 14.5 23"/>
  <polygon class="c" points="65.5 23 70.5 20 65.5 17 65.5 23"/>
  <circle class="b" cx="40" cy="20" r="13"/>
  <line class="b" x1="49" y1="11" x2="31" y2="29"/>
</svg>