<?xml version="1.0" encoding="UTF-8"?>
<svg id="a" data-name="图层 1" xmlns="http://www.w3.org/2000/svg" viewBox="0 0 80 40">
  <defs>
    <style>
      .b {
        fill: #39b54a;
      }
    </style>
  </defs>
  <path class="b" d="m27.8,2H10.2c-1.22,0-2.2.92-2.2,2.06v31.89c0,1.14.98,2.06,2.2,2.06h17.6c1.22,0,2.2-.92,2.2-2.06V4.06c0-1.14-.98-2.06-2.2-2.06Zm.2,18H10V4h18v16Z"/>
  <path class="b" d="m69.8,2h-17.6c-1.22,0-2.2.92-2.2,2.06v31.89c0,1.14.98,2.06,2.2,2.06h17.6c1.22,0,2.2-.92,2.2-2.06V4.06c0-1.14-.98-2.06-2.2-2.06Zm.2,18h-18V4h18v16Z"/>
  <polygon class="b" points="40 31 34 35 40 28 46 35 40 31"/>
  <polygon class="b" points="40 21 34 25 40 18 46 25 40 21"/>
</svg>